<svg xmlns="http://www.w3.org/2000/svg" xmlns:xlink="http://www.w3.org/1999/xlink" width="500" zoomAndPan="magnify" viewBox="0 0 375 374.999991" height="500" preserveAspectRatio="xMidYMid meet" version="1.0"><defs><g/><clipPath id="01819a0145"><path d="M 107.308594 75.039062 L 267.804688 75.039062 L 267.804688 204.78125 L 107.308594 204.78125 Z M 107.308594 75.039062 " clip-rule="nonzero"/></clipPath><clipPath id="1fb763bde6"><path d="M 112 130 L 177 130 L 177 204.785156 L 112 204.785156 Z M 112 130 " clip-rule="nonzero"/></clipPath></defs><g clip-path="url(#01819a0145)"><path fill="#52afe6" d="M 200.910156 172.773438 C 200.910156 170.945312 202.394531 169.457031 204.222656 169.457031 C 206.050781 169.457031 207.539062 170.945312 207.539062 172.773438 C 207.539062 174.601562 206.050781 176.089844 204.222656 176.089844 C 202.394531 176.089844 200.910156 174.601562 200.910156 172.773438 Z M 230.753906 143.949219 C 230.964844 144.808594 230.832031 145.699219 230.375 146.457031 C 229.917969 147.21875 229.195312 147.753906 228.335938 147.964844 C 226.5625 148.40625 224.761719 147.324219 224.320312 145.546875 C 223.878906 143.773438 224.964844 141.96875 226.738281 141.527344 C 227.003906 141.460938 227.273438 141.429688 227.542969 141.429688 C 228.136719 141.429688 228.722656 141.589844 229.246094 141.90625 C 230.003906 142.363281 230.539062 143.085938 230.753906 143.949219 Z M 192.292969 111.914062 C 192.214844 112.796875 191.796875 113.597656 191.117188 114.164062 C 190.441406 114.734375 189.582031 115 188.699219 114.925781 C 187.816406 114.84375 187.019531 114.425781 186.449219 113.75 C 185.882812 113.066406 185.613281 112.207031 185.691406 111.324219 C 185.769531 110.441406 186.1875 109.644531 186.867188 109.074219 C 187.46875 108.570312 188.210938 108.300781 188.988281 108.300781 C 189.085938 108.300781 189.1875 108.304688 189.285156 108.316406 C 190.167969 108.394531 190.964844 108.8125 191.535156 109.492188 C 192.101562 110.171875 192.371094 111.03125 192.292969 111.914062 Z M 116.699219 139.539062 C 116.699219 141.371094 115.214844 142.859375 113.386719 142.859375 C 111.558594 142.859375 110.074219 141.371094 110.074219 139.539062 C 110.074219 137.710938 111.558594 136.222656 113.386719 136.222656 C 115.214844 136.222656 116.699219 137.710938 116.699219 139.539062 Z M 223.589844 86.863281 L 208.65625 96.910156 L 176.148438 75.039062 L 111.996094 118.199219 L 112.164062 133.582031 C 109.394531 134.148438 107.308594 136.605469 107.308594 139.539062 C 107.308594 142.894531 110.035156 145.625 113.386719 145.625 C 116.738281 145.625 119.464844 142.894531 119.464844 139.539062 C 119.464844 136.71875 117.535156 134.339844 114.929688 133.65625 L 114.777344 119.664062 L 176.148438 78.371094 L 206.179688 98.578125 L 193.25 107.277344 C 192.25 106.289062 190.949219 105.683594 189.53125 105.558594 C 187.914062 105.414062 186.339844 105.910156 185.09375 106.953125 C 183.847656 107.996094 183.082031 109.460938 182.9375 111.078125 C 182.792969 112.699219 183.289062 114.277344 184.332031 115.523438 C 185.371094 116.769531 186.835938 117.535156 188.453125 117.679688 C 188.636719 117.695312 188.820312 117.703125 189.003906 117.703125 C 190.425781 117.703125 191.789062 117.210938 192.890625 116.285156 C 194.136719 115.246094 194.902344 113.777344 195.046875 112.160156 C 195.125 111.28125 195.015625 110.417969 194.734375 109.613281 L 208.65625 100.246094 L 226.15625 112.019531 L 226.15625 138.824219 C 226.125 138.828125 226.097656 138.835938 226.070312 138.839844 C 222.820312 139.652344 220.828125 142.957031 221.636719 146.214844 C 222.324219 148.980469 224.8125 150.832031 227.539062 150.832031 C 228.019531 150.832031 228.511719 150.773438 229 150.652344 C 230.578125 150.261719 231.90625 149.277344 232.742188 147.886719 C 233.582031 146.492188 233.828125 144.859375 233.433594 143.28125 C 233.042969 141.703125 232.0625 140.371094 230.671875 139.535156 C 230.121094 139.203125 229.527344 138.964844 228.917969 138.820312 L 228.917969 110.542969 L 211.132812 98.578125 L 223.589844 90.199219 L 265.042969 118.089844 L 265.042969 202 L 205.5 202 L 205.5 178.722656 C 208.238281 178.132812 210.300781 175.691406 210.300781 172.773438 C 210.300781 169.417969 207.574219 166.6875 204.222656 166.6875 C 200.871094 166.6875 198.144531 169.417969 198.144531 172.773438 C 198.144531 175.613281 200.101562 178.007812 202.734375 178.671875 L 202.734375 204.769531 L 267.804688 204.769531 L 267.804688 116.613281 L 223.589844 86.863281 " fill-opacity="1" fill-rule="nonzero"/></g><g clip-path="url(#1fb763bde6)"><path fill="#52afe6" d="M 170.460938 152.765625 C 168.632812 152.765625 167.148438 151.277344 167.148438 149.449219 C 167.148438 147.617188 168.632812 146.128906 170.460938 146.128906 C 172.289062 146.128906 173.777344 147.617188 173.777344 149.449219 C 173.777344 151.277344 172.289062 152.765625 170.460938 152.765625 Z M 150.375 132.898438 C 152.203125 132.898438 153.6875 134.386719 153.6875 136.21875 C 153.6875 138.046875 152.203125 139.535156 150.375 139.535156 C 148.546875 139.535156 147.058594 138.046875 147.058594 136.21875 C 147.058594 134.386719 148.546875 132.898438 150.375 132.898438 Z M 170.460938 143.363281 C 167.109375 143.363281 164.382812 146.09375 164.382812 149.449219 C 164.382812 152.328125 166.390625 154.746094 169.078125 155.371094 L 169.078125 201.445312 L 114.769531 201.988281 L 114.769531 162.054688 L 146.304688 140.734375 C 147.382812 141.707031 148.8125 142.300781 150.375 142.300781 C 153.726562 142.300781 156.453125 139.574219 156.453125 136.21875 C 156.453125 132.863281 153.726562 130.132812 150.375 130.132812 C 147.023438 130.132812 144.296875 132.863281 144.296875 136.21875 C 144.296875 137.011719 144.449219 137.765625 144.726562 138.460938 L 112.003906 160.582031 L 112.003906 204.78125 L 171.84375 204.183594 L 171.84375 155.371094 C 174.53125 154.746094 176.539062 152.328125 176.539062 149.449219 C 176.539062 146.09375 173.8125 143.363281 170.460938 143.363281 " fill-opacity="1" fill-rule="nonzero"/></g><g fill="#52afe6" fill-opacity="1"><g transform="translate(70.923046, 266.35636)"><g><path d="M 11.34375 -3.703125 C 11.90625 -3.703125 12.507812 -3.789062 13.15625 -3.96875 C 13.8125 -4.144531 14.378906 -4.4375 14.859375 -4.84375 C 15.335938 -5.25 15.578125 -5.804688 15.578125 -6.515625 C 15.578125 -7.160156 15.320312 -7.679688 14.8125 -8.078125 C 14.3125 -8.484375 13.65625 -8.8125 12.84375 -9.0625 C 12.03125 -9.320312 11.140625 -9.5625 10.171875 -9.78125 C 9.203125 -10 8.226562 -10.265625 7.25 -10.578125 C 6.269531 -10.898438 5.367188 -11.316406 4.546875 -11.828125 C 3.734375 -12.335938 3.070312 -13 2.5625 -13.8125 C 2.0625 -14.632812 1.8125 -15.675781 1.8125 -16.9375 C 1.8125 -18.175781 2.066406 -19.242188 2.578125 -20.140625 C 3.097656 -21.035156 3.785156 -21.78125 4.640625 -22.375 C 5.492188 -22.976562 6.445312 -23.425781 7.5 -23.71875 C 8.5625 -24.007812 9.628906 -24.15625 10.703125 -24.15625 C 12.335938 -24.15625 13.867188 -23.894531 15.296875 -23.375 C 16.722656 -22.863281 17.882812 -22.050781 18.78125 -20.9375 C 19.675781 -19.832031 20.144531 -18.375 20.1875 -16.5625 L 15.125 -16.5625 C 14.976562 -17.789062 14.539062 -18.644531 13.8125 -19.125 C 13.09375 -19.601562 12.082031 -19.84375 10.78125 -19.84375 C 10.289062 -19.84375 9.769531 -19.757812 9.21875 -19.59375 C 8.675781 -19.4375 8.210938 -19.175781 7.828125 -18.8125 C 7.441406 -18.445312 7.25 -17.960938 7.25 -17.359375 C 7.25 -16.753906 7.5 -16.273438 8 -15.921875 C 8.5 -15.578125 9.15625 -15.285156 9.96875 -15.046875 C 10.789062 -14.816406 11.691406 -14.59375 12.671875 -14.375 C 13.648438 -14.164062 14.625 -13.910156 15.59375 -13.609375 C 16.5625 -13.304688 17.453125 -12.890625 18.265625 -12.359375 C 19.085938 -11.835938 19.75 -11.15625 20.25 -10.3125 C 20.75 -9.476562 21 -8.410156 21 -7.109375 C 21 -5.703125 20.71875 -4.507812 20.15625 -3.53125 C 19.59375 -2.550781 18.835938 -1.765625 17.890625 -1.171875 C 16.953125 -0.578125 15.894531 -0.140625 14.71875 0.140625 C 13.539062 0.421875 12.34375 0.5625 11.125 0.5625 C 9.375 0.5625 7.734375 0.265625 6.203125 -0.328125 C 4.679688 -0.921875 3.445312 -1.835938 2.5 -3.078125 C 1.550781 -4.316406 1.066406 -5.90625 1.046875 -7.84375 L 6.375 -7.84375 C 6.4375 -6.414062 6.957031 -5.367188 7.9375 -4.703125 C 8.925781 -4.035156 10.0625 -3.703125 11.34375 -3.703125 Z M 11.34375 -3.703125 "/></g></g></g><g fill="#52afe6" fill-opacity="1"><g transform="translate(95.070042, 266.35636)"><g><path d="M 31.78125 0 L 26 0 L 23.203125 -16.421875 L 18.546875 0 L 13.40625 0 L 8.75 -16.421875 L 5.953125 0 L 0.171875 0 L 4.796875 -23.796875 L 11.03125 -23.796875 L 16 -7.109375 L 20.9375 -23.796875 L 27.15625 -23.796875 Z M 31.78125 0 "/></g></g></g><g fill="#52afe6" fill-opacity="1"><g transform="translate(129.120683, 266.35636)"><g><path d="M 15.046875 -9.09375 L 12.046875 -17.5625 L 9.03125 -9.09375 Z M 23.9375 0 L 18.3125 0 L 16.59375 -4.796875 L 7.53125 -4.796875 L 5.8125 0 L 0.171875 0 L 9.828125 -23.796875 L 14.28125 -23.796875 Z M 23.9375 0 "/></g></g></g><g fill="#52afe6" fill-opacity="1"><g transform="translate(155.332394, 266.35636)"><g><path d="M 7.34375 -8.5 L 7.34375 0 L 2.09375 0 L 2.09375 -23.796875 L 11.03125 -23.796875 C 12.3125 -23.796875 13.503906 -23.472656 14.609375 -22.828125 C 15.722656 -22.191406 16.617188 -21.300781 17.296875 -20.15625 C 17.972656 -19.007812 18.3125 -17.679688 18.3125 -16.171875 C 18.3125 -14.835938 18.0625 -13.65625 17.5625 -12.625 C 17.070312 -11.601562 16.421875 -10.765625 15.609375 -10.109375 C 14.796875 -9.460938 13.882812 -9.007812 12.875 -8.75 L 19.703125 0 L 13.0625 0 L 7.390625 -8.5 Z M 10.15625 -19.671875 L 7.34375 -19.671875 L 7.34375 -12.640625 L 10.15625 -12.640625 C 10.925781 -12.640625 11.640625 -12.941406 12.296875 -13.546875 C 12.960938 -14.148438 13.296875 -15.023438 13.296875 -16.171875 C 13.296875 -17.265625 12.960938 -18.117188 12.296875 -18.734375 C 11.640625 -19.359375 10.925781 -19.671875 10.15625 -19.671875 Z M 10.15625 -19.671875 "/></g></g></g><g fill="#52afe6" fill-opacity="1"><g transform="translate(176.714756, 266.35636)"><g><path d="M 12.21875 -19.046875 L 12.21875 0 L 6.96875 0 L 6.96875 -19.046875 L 0.171875 -19.046875 L 0.171875 -23.796875 L 19 -23.796875 L 19 -19.046875 Z M 12.21875 -19.046875 "/></g></g></g><g fill="#303030" fill-opacity="1"><g transform="translate(197.998237, 266.35636)"><g><path d="M 15.1875 -23.796875 L 20.796875 -23.796875 L 20.796875 0 L 15.1875 0 L 15.1875 -9.5625 L 7.34375 -9.5625 L 7.34375 0 L 2.09375 0 L 2.09375 -23.796875 L 7.34375 -23.796875 L 7.34375 -14.3125 L 15.1875 -14.3125 Z M 15.1875 -23.796875 "/></g></g></g><g fill="#303030" fill-opacity="1"><g transform="translate(222.985116, 266.35636)"><g><path d="M 20.46875 -11.9375 C 20.46875 -13.175781 20.140625 -14.320312 19.484375 -15.375 C 18.835938 -16.4375 17.984375 -17.296875 16.921875 -17.953125 C 15.859375 -18.609375 14.707031 -18.9375 13.46875 -18.9375 C 12.257812 -18.9375 11.117188 -18.609375 10.046875 -17.953125 C 8.972656 -17.296875 8.109375 -16.4375 7.453125 -15.375 C 6.796875 -14.320312 6.46875 -13.175781 6.46875 -11.9375 C 6.46875 -10.71875 6.796875 -9.570312 7.453125 -8.5 C 8.109375 -7.425781 8.972656 -6.554688 10.046875 -5.890625 C 11.117188 -5.234375 12.257812 -4.90625 13.46875 -4.90625 C 14.707031 -4.90625 15.859375 -5.234375 16.921875 -5.890625 C 17.984375 -6.554688 18.835938 -7.425781 19.484375 -8.5 C 20.140625 -9.570312 20.46875 -10.71875 20.46875 -11.9375 Z M 25.71875 -11.90625 C 25.71875 -10.269531 25.390625 -8.707031 24.734375 -7.21875 C 24.085938 -5.738281 23.195312 -4.429688 22.0625 -3.296875 C 20.9375 -2.171875 19.632812 -1.28125 18.15625 -0.625 C 16.6875 0.0195312 15.125 0.34375 13.46875 0.34375 C 11.84375 0.34375 10.285156 0.0195312 8.796875 -0.625 C 7.316406 -1.28125 6.007812 -2.171875 4.875 -3.296875 C 3.75 -4.429688 2.859375 -5.738281 2.203125 -7.21875 C 1.546875 -8.707031 1.21875 -10.269531 1.21875 -11.90625 C 1.21875 -13.5625 1.546875 -15.125 2.203125 -16.59375 C 2.859375 -18.0625 3.75 -19.359375 4.875 -20.484375 C 6.007812 -21.617188 7.316406 -22.515625 8.796875 -23.171875 C 10.285156 -23.828125 11.84375 -24.15625 13.46875 -24.15625 C 15.125 -24.15625 16.6875 -23.828125 18.15625 -23.171875 C 19.632812 -22.515625 20.9375 -21.617188 22.0625 -20.484375 C 23.195312 -19.359375 24.085938 -18.0625 24.734375 -16.59375 C 25.390625 -15.125 25.71875 -13.5625 25.71875 -11.90625 Z M 25.71875 -11.90625 "/></g></g></g><g fill="#303030" fill-opacity="1"><g transform="translate(252.031442, 266.35636)"><g><path d="M 31.78125 0 L 26 0 L 23.203125 -16.421875 L 18.546875 0 L 13.40625 0 L 8.75 -16.421875 L 5.953125 0 L 0.171875 0 L 4.796875 -23.796875 L 11.03125 -23.796875 L 16 -7.109375 L 20.9375 -23.796875 L 27.15625 -23.796875 Z M 31.78125 0 "/></g></g></g><g fill="#303030" fill-opacity="1"><g transform="translate(286.082083, 266.35636)"><g><path d="M 15.890625 -4.765625 L 15.890625 0 L 2.09375 0 L 2.09375 -23.796875 L 15.890625 -23.796875 L 15.890625 -19.046875 L 7.34375 -19.046875 L 7.34375 -14.3125 L 15.546875 -14.3125 L 15.546875 -9.5625 L 7.34375 -9.5625 L 7.34375 -4.765625 Z M 15.890625 -4.765625 "/></g></g></g><g fill="#737373" fill-opacity="1"><g transform="translate(169.196903, 294.777549)"><g><path d="M 2.703125 -9.625 C 3.460938 -9.625 4 -9.445312 4.3125 -9.09375 C 4.632812 -8.738281 4.796875 -8.207031 4.796875 -7.5 L 4.796875 -7.046875 C 4.796875 -6.523438 4.710938 -6.109375 4.546875 -5.796875 C 4.378906 -5.484375 4.085938 -5.257812 3.671875 -5.125 C 4.140625 -5 4.472656 -4.753906 4.671875 -4.390625 C 4.867188 -4.035156 4.96875 -3.59375 4.96875 -3.0625 L 4.96875 -2.25 C 4.96875 -1.53125 4.785156 -0.972656 4.421875 -0.578125 C 4.066406 -0.191406 3.515625 0 2.765625 0 L 0.546875 0 L 0.546875 -9.625 Z M 2.453125 -5.546875 C 2.878906 -5.546875 3.195312 -5.628906 3.40625 -5.796875 C 3.625 -5.972656 3.734375 -6.3125 3.734375 -6.8125 L 3.734375 -7.390625 C 3.734375 -7.816406 3.65625 -8.132812 3.5 -8.34375 C 3.34375 -8.550781 3.070312 -8.65625 2.6875 -8.65625 L 1.625 -8.65625 L 1.625 -5.546875 Z M 2.765625 -0.96875 C 3.523438 -0.96875 3.90625 -1.40625 3.90625 -2.28125 L 3.90625 -3.140625 C 3.90625 -3.679688 3.796875 -4.050781 3.578125 -4.25 C 3.367188 -4.457031 3.03125 -4.5625 2.5625 -4.5625 L 1.625 -4.5625 L 1.625 -0.96875 Z M 2.765625 -0.96875 "/></g></g></g><g fill="#737373" fill-opacity="1"><g transform="translate(180.083143, 294.777549)"><g><path d="M 1.625 -9.625 L 1.625 0 L 0.546875 0 L 0.546875 -9.625 Z M 1.625 -9.625 "/></g></g></g><g fill="#737373" fill-opacity="1"><g transform="translate(187.754152, 294.777549)"><g><path d="M 4.09375 -0.015625 L 3.0625 -0.015625 L 1.46875 -7.671875 L 1.46875 0 L 0.53125 0 L 0.53125 -9.625 L 2.03125 -9.625 L 3.609375 -1.9375 L 5.140625 -9.625 L 6.640625 -9.625 L 6.640625 0 L 5.625 0 L 5.625 -7.734375 Z M 4.09375 -0.015625 "/></g></g></g><g fill="#737373" fill-opacity="1"><g transform="translate(200.440374, 294.777549)"><g><path d="M 0.46875 -7.296875 C 0.46875 -8.046875 0.644531 -8.632812 1 -9.0625 C 1.363281 -9.5 1.921875 -9.71875 2.671875 -9.71875 C 3.410156 -9.71875 3.960938 -9.5 4.328125 -9.0625 C 4.691406 -8.632812 4.875 -8.046875 4.875 -7.296875 L 4.875 -2.328125 C 4.875 -1.585938 4.691406 -1 4.328125 -0.5625 C 3.960938 -0.125 3.410156 0.09375 2.671875 0.09375 C 1.921875 0.09375 1.363281 -0.125 1 -0.5625 C 0.644531 -1 0.46875 -1.585938 0.46875 -2.328125 Z M 1.53125 -2.265625 C 1.53125 -1.828125 1.625 -1.484375 1.8125 -1.234375 C 2 -0.992188 2.285156 -0.875 2.671875 -0.875 C 3.066406 -0.875 3.351562 -0.992188 3.53125 -1.234375 C 3.71875 -1.484375 3.8125 -1.828125 3.8125 -2.265625 L 3.8125 -7.359375 C 3.8125 -7.796875 3.71875 -8.132812 3.53125 -8.375 C 3.351562 -8.625 3.066406 -8.75 2.671875 -8.75 C 2.285156 -8.75 2 -8.625 1.8125 -8.375 C 1.625 -8.132812 1.53125 -7.796875 1.53125 -7.359375 Z M 1.53125 -2.265625 "/></g></g></g></svg>