<svg xmlns="http://www.w3.org/2000/svg" xmlns:xlink="http://www.w3.org/1999/xlink" width="500" zoomAndPan="magnify" viewBox="0 0 375 374.999991" height="500" preserveAspectRatio="xMidYMid meet" version="1.0"><defs><g/><clipPath id="5b6dfb93e3"><path d="M 123.347656 103.746094 L 251.59375 103.746094 L 251.59375 207.242188 L 123.347656 207.242188 Z M 123.347656 103.746094 " clip-rule="nonzero"/></clipPath><clipPath id="48d5274c68"><path d="M 127 147 L 179 147 L 179 207.242188 L 127 207.242188 Z M 127 147 " clip-rule="nonzero"/></clipPath></defs><rect x="-37.5" width="450" fill="#ffffff" y="-37.499999" height="449.999989" fill-opacity="1"/><rect x="-37.5" width="450" fill="#ffffff" y="-37.499999" height="449.999989" fill-opacity="1"/><g clip-path="url(#5b6dfb93e3)"><path fill="#52afe6" d="M 198.140625 181.707031 C 198.140625 180.25 199.328125 179.0625 200.789062 179.0625 C 202.25 179.0625 203.4375 180.25 203.4375 181.707031 C 203.4375 183.167969 202.25 184.355469 200.789062 184.355469 C 199.328125 184.355469 198.140625 183.167969 198.140625 181.707031 Z M 221.988281 158.714844 C 222.15625 159.402344 222.050781 160.113281 221.6875 160.71875 C 221.320312 161.324219 220.742188 161.75 220.054688 161.921875 C 218.640625 162.273438 217.199219 161.40625 216.847656 159.992188 C 216.496094 158.574219 217.363281 157.136719 218.777344 156.785156 C 218.992188 156.730469 219.207031 156.703125 219.421875 156.703125 C 219.898438 156.703125 220.363281 156.832031 220.78125 157.085938 C 221.386719 157.449219 221.816406 158.027344 221.988281 158.714844 Z M 191.253906 133.160156 C 191.191406 133.867188 190.859375 134.503906 190.316406 134.957031 C 189.773438 135.410156 189.089844 135.625 188.382812 135.5625 C 187.679688 135.5 187.039062 135.167969 186.585938 134.625 C 186.132812 134.082031 185.917969 133.398438 185.980469 132.691406 C 186.042969 131.988281 186.375 131.351562 186.917969 130.898438 C 187.398438 130.496094 187.992188 130.28125 188.613281 130.28125 C 188.691406 130.28125 188.773438 130.285156 188.851562 130.292969 C 189.558594 130.355469 190.195312 130.6875 190.648438 131.230469 C 191.101562 131.769531 191.320312 132.457031 191.253906 133.160156 Z M 130.851562 155.199219 C 130.851562 156.660156 129.664062 157.847656 128.203125 157.847656 C 126.742188 157.847656 125.554688 156.660156 125.554688 155.199219 C 125.554688 153.742188 126.742188 152.554688 128.203125 152.554688 C 129.664062 152.554688 130.851562 153.742188 130.851562 155.199219 Z M 216.261719 113.179688 L 204.332031 121.195312 L 178.351562 103.746094 L 127.09375 138.175781 L 127.226562 150.445312 C 125.015625 150.898438 123.347656 152.859375 123.347656 155.199219 C 123.347656 157.875 125.527344 160.054688 128.203125 160.054688 C 130.882812 160.054688 133.0625 157.875 133.0625 155.199219 C 133.0625 152.949219 131.519531 151.050781 129.433594 150.503906 L 129.316406 139.34375 L 178.351562 106.40625 L 202.351562 122.523438 L 192.019531 129.464844 C 191.21875 128.675781 190.179688 128.195312 189.046875 128.09375 C 187.757812 127.980469 186.496094 128.371094 185.5 129.203125 C 184.507812 130.035156 183.894531 131.207031 183.78125 132.496094 C 183.664062 133.789062 184.058594 135.046875 184.890625 136.042969 C 185.726562 137.035156 186.894531 137.648438 188.1875 137.761719 C 188.335938 137.773438 188.480469 137.78125 188.625 137.78125 C 189.761719 137.78125 190.851562 137.386719 191.734375 136.648438 C 192.730469 135.820312 193.339844 134.648438 193.457031 133.359375 C 193.519531 132.660156 193.429688 131.96875 193.203125 131.328125 L 204.332031 123.855469 L 218.3125 133.246094 L 218.3125 154.628906 C 218.289062 154.632812 218.269531 154.636719 218.246094 154.640625 C 215.648438 155.285156 214.058594 157.925781 214.703125 160.523438 C 215.25 162.730469 217.238281 164.207031 219.417969 164.207031 C 219.804688 164.207031 220.195312 164.160156 220.585938 164.0625 C 221.847656 163.75 222.910156 162.964844 223.578125 161.855469 C 224.246094 160.746094 224.445312 159.441406 224.128906 158.183594 C 223.816406 156.925781 223.035156 155.863281 221.921875 155.195312 C 221.480469 154.929688 221.007812 154.738281 220.519531 154.625 L 220.519531 132.070312 L 206.308594 122.523438 L 216.261719 115.839844 L 249.386719 138.085938 L 249.386719 205.023438 L 201.808594 205.023438 L 201.808594 186.453125 C 203.996094 185.984375 205.644531 184.035156 205.644531 181.707031 C 205.644531 179.03125 203.464844 176.855469 200.789062 176.855469 C 198.109375 176.855469 195.929688 179.03125 195.929688 181.707031 C 195.929688 183.972656 197.492188 185.882812 199.597656 186.414062 L 199.597656 207.230469 L 251.59375 207.230469 L 251.59375 136.910156 L 216.261719 113.179688 " fill-opacity="1" fill-rule="nonzero"/></g><g clip-path="url(#48d5274c68)"><path fill="#52afe6" d="M 173.808594 165.75 C 172.351562 165.75 171.164062 164.5625 171.164062 163.101562 C 171.164062 161.644531 172.351562 160.457031 173.808594 160.457031 C 175.269531 160.457031 176.457031 161.644531 176.457031 163.101562 C 176.457031 164.5625 175.269531 165.75 173.808594 165.75 Z M 157.757812 149.902344 C 159.21875 149.902344 160.40625 151.089844 160.40625 152.546875 C 160.40625 154.007812 159.21875 155.195312 157.757812 155.195312 C 156.300781 155.195312 155.109375 154.007812 155.109375 152.546875 C 155.109375 151.089844 156.300781 149.902344 157.757812 149.902344 Z M 173.808594 158.25 C 171.132812 158.25 168.953125 160.425781 168.953125 163.101562 C 168.953125 165.398438 170.558594 167.328125 172.707031 167.828125 L 172.707031 204.578125 L 129.308594 205.011719 L 129.308594 173.15625 L 154.507812 156.152344 C 155.371094 156.929688 156.511719 157.402344 157.757812 157.402344 C 160.4375 157.402344 162.617188 155.226562 162.617188 152.546875 C 162.617188 149.871094 160.4375 147.695312 157.757812 147.695312 C 155.082031 147.695312 152.902344 149.871094 152.902344 152.546875 C 152.902344 153.179688 153.027344 153.785156 153.246094 154.339844 L 127.101562 171.984375 L 127.101562 207.242188 L 174.914062 206.761719 L 174.914062 167.828125 C 177.0625 167.328125 178.667969 165.398438 178.667969 163.101562 C 178.667969 160.425781 176.488281 158.25 173.808594 158.25 " fill-opacity="1" fill-rule="nonzero"/></g><g fill="#52afe6" fill-opacity="1"><g transform="translate(94.238436, 256.801037)"><g><path d="M 9.078125 -2.96875 C 9.523438 -2.96875 10.007812 -3.035156 10.53125 -3.171875 C 11.050781 -3.316406 11.5 -3.550781 11.875 -3.875 C 12.257812 -4.207031 12.453125 -4.648438 12.453125 -5.203125 C 12.453125 -5.722656 12.25 -6.140625 11.84375 -6.453125 C 11.445312 -6.773438 10.921875 -7.039062 10.265625 -7.25 C 9.617188 -7.457031 8.90625 -7.648438 8.125 -7.828125 C 7.351562 -8.003906 6.578125 -8.21875 5.796875 -8.46875 C 5.015625 -8.71875 4.296875 -9.046875 3.640625 -9.453125 C 2.984375 -9.867188 2.453125 -10.40625 2.046875 -11.0625 C 1.648438 -11.71875 1.453125 -12.546875 1.453125 -13.546875 C 1.453125 -14.535156 1.65625 -15.390625 2.0625 -16.109375 C 2.476562 -16.828125 3.023438 -17.425781 3.703125 -17.90625 C 4.390625 -18.382812 5.15625 -18.738281 6 -18.96875 C 6.851562 -19.195312 7.707031 -19.3125 8.5625 -19.3125 C 9.875 -19.3125 11.097656 -19.109375 12.234375 -18.703125 C 13.367188 -18.296875 14.296875 -17.644531 15.015625 -16.75 C 15.734375 -15.863281 16.113281 -14.695312 16.15625 -13.25 L 12.09375 -13.25 C 11.976562 -14.238281 11.628906 -14.921875 11.046875 -15.296875 C 10.472656 -15.679688 9.664062 -15.875 8.625 -15.875 C 8.226562 -15.875 7.8125 -15.804688 7.375 -15.671875 C 6.9375 -15.546875 6.5625 -15.335938 6.25 -15.046875 C 5.945312 -14.753906 5.796875 -14.367188 5.796875 -13.890625 C 5.796875 -13.398438 5.992188 -13.015625 6.390625 -12.734375 C 6.796875 -12.453125 7.320312 -12.21875 7.96875 -12.03125 C 8.625 -11.851562 9.34375 -11.675781 10.125 -11.5 C 10.914062 -11.332031 11.695312 -11.128906 12.46875 -10.890625 C 13.25 -10.648438 13.960938 -10.316406 14.609375 -9.890625 C 15.265625 -9.472656 15.789062 -8.925781 16.1875 -8.25 C 16.59375 -7.582031 16.796875 -6.726562 16.796875 -5.6875 C 16.796875 -4.5625 16.570312 -3.609375 16.125 -2.828125 C 15.675781 -2.046875 15.070312 -1.414062 14.3125 -0.9375 C 13.5625 -0.457031 12.710938 -0.109375 11.765625 0.109375 C 10.828125 0.335938 9.875 0.453125 8.90625 0.453125 C 7.5 0.453125 6.1875 0.210938 4.96875 -0.265625 C 3.75 -0.742188 2.757812 -1.476562 2 -2.46875 C 1.25 -3.457031 0.863281 -4.722656 0.84375 -6.265625 L 5.09375 -6.265625 C 5.15625 -5.128906 5.578125 -4.296875 6.359375 -3.765625 C 7.140625 -3.234375 8.046875 -2.96875 9.078125 -2.96875 Z M 9.078125 -2.96875 "/></g></g></g><g fill="#52afe6" fill-opacity="1"><g transform="translate(113.556033, 256.801037)"><g><path d="M 25.421875 0 L 20.796875 0 L 18.5625 -13.125 L 14.84375 0 L 10.71875 0 L 7 -13.125 L 4.765625 0 L 0.140625 0 L 3.84375 -19.046875 L 8.8125 -19.046875 L 12.796875 -5.6875 L 16.75 -19.046875 L 21.734375 -19.046875 Z M 25.421875 0 "/></g></g></g><g fill="#52afe6" fill-opacity="1"><g transform="translate(140.796546, 256.801037)"><g><path d="M 12.046875 -7.28125 L 9.625 -14.0625 L 7.21875 -7.28125 Z M 19.15625 0 L 14.640625 0 L 13.265625 -3.84375 L 6.015625 -3.84375 L 4.640625 0 L 0.140625 0 L 7.875 -19.046875 L 11.421875 -19.046875 Z M 19.15625 0 "/></g></g></g><g fill="#52afe6" fill-opacity="1"><g transform="translate(161.765914, 256.801037)"><g><path d="M 5.875 -6.796875 L 5.875 0 L 1.6875 0 L 1.6875 -19.046875 L 8.8125 -19.046875 C 9.84375 -19.046875 10.800781 -18.785156 11.6875 -18.265625 C 12.570312 -17.753906 13.285156 -17.039062 13.828125 -16.125 C 14.367188 -15.207031 14.640625 -14.144531 14.640625 -12.9375 C 14.640625 -11.875 14.441406 -10.929688 14.046875 -10.109375 C 13.660156 -9.285156 13.140625 -8.613281 12.484375 -8.09375 C 11.835938 -7.570312 11.109375 -7.207031 10.296875 -7 L 15.765625 0 L 10.4375 0 L 5.90625 -6.796875 Z M 8.125 -15.734375 L 5.875 -15.734375 L 5.875 -10.109375 L 8.125 -10.109375 C 8.738281 -10.109375 9.3125 -10.347656 9.84375 -10.828125 C 10.375 -11.316406 10.640625 -12.019531 10.640625 -12.9375 C 10.640625 -13.8125 10.375 -14.492188 9.84375 -14.984375 C 9.3125 -15.484375 8.738281 -15.734375 8.125 -15.734375 Z M 8.125 -15.734375 "/></g></g></g><g fill="#52afe6" fill-opacity="1"><g transform="translate(178.871804, 256.801037)"><g><path d="M 9.765625 -15.234375 L 9.765625 0 L 5.578125 0 L 5.578125 -15.234375 L 0.140625 -15.234375 L 0.140625 -19.046875 L 15.203125 -19.046875 L 15.203125 -15.234375 Z M 9.765625 -15.234375 "/></g></g></g><g fill="#303030" fill-opacity="1"><g transform="translate(195.898589, 256.801037)"><g><path d="M 12.15625 -19.046875 L 16.625 -19.046875 L 16.625 0 L 12.15625 0 L 12.15625 -7.640625 L 5.875 -7.640625 L 5.875 0 L 1.6875 0 L 1.6875 -19.046875 L 5.875 -19.046875 L 5.875 -11.453125 L 12.15625 -11.453125 Z M 12.15625 -19.046875 "/></g></g></g><g fill="#303030" fill-opacity="1"><g transform="translate(215.888092, 256.801037)"><g><path d="M 16.375 -9.546875 C 16.375 -10.535156 16.113281 -11.453125 15.59375 -12.296875 C 15.070312 -13.148438 14.382812 -13.835938 13.53125 -14.359375 C 12.6875 -14.878906 11.769531 -15.140625 10.78125 -15.140625 C 9.8125 -15.140625 8.894531 -14.878906 8.03125 -14.359375 C 7.175781 -13.835938 6.488281 -13.148438 5.96875 -12.296875 C 5.445312 -11.453125 5.1875 -10.535156 5.1875 -9.546875 C 5.1875 -8.578125 5.445312 -7.660156 5.96875 -6.796875 C 6.488281 -5.941406 7.175781 -5.25 8.03125 -4.71875 C 8.894531 -4.1875 9.8125 -3.921875 10.78125 -3.921875 C 11.769531 -3.921875 12.6875 -4.1875 13.53125 -4.71875 C 14.382812 -5.25 15.070312 -5.941406 15.59375 -6.796875 C 16.113281 -7.660156 16.375 -8.578125 16.375 -9.546875 Z M 20.578125 -9.515625 C 20.578125 -8.210938 20.316406 -6.96875 19.796875 -5.78125 C 19.273438 -4.59375 18.5625 -3.546875 17.65625 -2.640625 C 16.75 -1.734375 15.707031 -1.019531 14.53125 -0.5 C 13.351562 0.0195312 12.101562 0.28125 10.78125 0.28125 C 9.46875 0.28125 8.21875 0.0195312 7.03125 -0.5 C 5.851562 -1.019531 4.8125 -1.734375 3.90625 -2.640625 C 3 -3.546875 2.285156 -4.59375 1.765625 -5.78125 C 1.242188 -6.96875 0.984375 -8.210938 0.984375 -9.515625 C 0.984375 -10.847656 1.242188 -12.097656 1.765625 -13.265625 C 2.285156 -14.441406 3 -15.484375 3.90625 -16.390625 C 4.8125 -17.296875 5.851562 -18.007812 7.03125 -18.53125 C 8.21875 -19.050781 9.46875 -19.3125 10.78125 -19.3125 C 12.101562 -19.3125 13.351562 -19.050781 14.53125 -18.53125 C 15.707031 -18.007812 16.75 -17.296875 17.65625 -16.390625 C 18.5625 -15.484375 19.273438 -14.441406 19.796875 -13.265625 C 20.316406 -12.097656 20.578125 -10.847656 20.578125 -9.515625 Z M 20.578125 -9.515625 "/></g></g></g><g fill="#303030" fill-opacity="1"><g transform="translate(239.125153, 256.801037)"><g><path d="M 25.421875 0 L 20.796875 0 L 18.5625 -13.125 L 14.84375 0 L 10.71875 0 L 7 -13.125 L 4.765625 0 L 0.140625 0 L 3.84375 -19.046875 L 8.8125 -19.046875 L 12.796875 -5.6875 L 16.75 -19.046875 L 21.734375 -19.046875 Z M 25.421875 0 "/></g></g></g><g fill="#303030" fill-opacity="1"><g transform="translate(266.365666, 256.801037)"><g><path d="M 12.71875 -3.8125 L 12.71875 0 L 1.6875 0 L 1.6875 -19.046875 L 12.71875 -19.046875 L 12.71875 -15.234375 L 5.875 -15.234375 L 5.875 -11.453125 L 12.4375 -11.453125 L 12.4375 -7.640625 L 5.875 -7.640625 L 5.875 -3.8125 Z M 12.71875 -3.8125 "/></g></g></g><g fill="#737373" fill-opacity="1"><g transform="translate(172.857533, 279.537961)"><g><path d="M 2.171875 -7.703125 C 2.765625 -7.703125 3.191406 -7.5625 3.453125 -7.28125 C 3.710938 -7 3.84375 -6.570312 3.84375 -6 L 3.84375 -5.625 C 3.84375 -5.21875 3.773438 -4.882812 3.640625 -4.625 C 3.503906 -4.375 3.269531 -4.203125 2.9375 -4.109375 C 3.3125 -4.003906 3.578125 -3.804688 3.734375 -3.515625 C 3.890625 -3.234375 3.96875 -2.878906 3.96875 -2.453125 L 3.96875 -1.796875 C 3.96875 -1.222656 3.820312 -0.78125 3.53125 -0.46875 C 3.25 -0.15625 2.8125 0 2.21875 0 L 0.4375 0 L 0.4375 -7.703125 Z M 1.953125 -4.4375 C 2.296875 -4.4375 2.550781 -4.503906 2.71875 -4.640625 C 2.894531 -4.773438 2.984375 -5.046875 2.984375 -5.453125 L 2.984375 -5.90625 C 2.984375 -6.25 2.921875 -6.503906 2.796875 -6.671875 C 2.671875 -6.835938 2.453125 -6.921875 2.140625 -6.921875 L 1.296875 -6.921875 L 1.296875 -4.4375 Z M 2.21875 -0.78125 C 2.820312 -0.78125 3.125 -1.128906 3.125 -1.828125 L 3.125 -2.515625 C 3.125 -2.941406 3.035156 -3.238281 2.859375 -3.40625 C 2.691406 -3.570312 2.421875 -3.65625 2.046875 -3.65625 L 1.296875 -3.65625 L 1.296875 -0.78125 Z M 2.21875 -0.78125 "/></g></g></g><g fill="#737373" fill-opacity="1"><g transform="translate(181.566525, 279.537961)"><g><path d="M 1.296875 -7.703125 L 1.296875 0 L 0.4375 0 L 0.4375 -7.703125 Z M 1.296875 -7.703125 "/></g></g></g><g fill="#737373" fill-opacity="1"><g transform="translate(187.703331, 279.537961)"><g><path d="M 3.28125 -0.015625 L 2.453125 -0.015625 L 1.171875 -6.140625 L 1.171875 0 L 0.421875 0 L 0.421875 -7.703125 L 1.625 -7.703125 L 2.890625 -1.546875 L 4.109375 -7.703125 L 5.3125 -7.703125 L 5.3125 0 L 4.5 0 L 4.5 -6.1875 Z M 3.28125 -0.015625 "/></g></g></g><g fill="#737373" fill-opacity="1"><g transform="translate(197.852309, 279.537961)"><g><path d="M 0.375 -5.84375 C 0.375 -6.4375 0.519531 -6.90625 0.8125 -7.25 C 1.101562 -7.601562 1.546875 -7.78125 2.140625 -7.78125 C 2.734375 -7.78125 3.175781 -7.601562 3.46875 -7.25 C 3.757812 -6.90625 3.90625 -6.4375 3.90625 -5.84375 L 3.90625 -1.859375 C 3.90625 -1.273438 3.757812 -0.804688 3.46875 -0.453125 C 3.175781 -0.0976562 2.734375 0.078125 2.140625 0.078125 C 1.546875 0.078125 1.101562 -0.0976562 0.8125 -0.453125 C 0.519531 -0.804688 0.375 -1.273438 0.375 -1.859375 Z M 1.21875 -1.8125 C 1.21875 -1.457031 1.289062 -1.179688 1.4375 -0.984375 C 1.59375 -0.796875 1.828125 -0.703125 2.140625 -0.703125 C 2.453125 -0.703125 2.679688 -0.796875 2.828125 -0.984375 C 2.972656 -1.179688 3.046875 -1.457031 3.046875 -1.8125 L 3.046875 -5.890625 C 3.046875 -6.234375 2.972656 -6.503906 2.828125 -6.703125 C 2.679688 -6.898438 2.453125 -7 2.140625 -7 C 1.828125 -7 1.59375 -6.898438 1.4375 -6.703125 C 1.289062 -6.503906 1.21875 -6.234375 1.21875 -5.890625 Z M 1.21875 -1.8125 "/></g></g></g></svg>